<svg xmlns="http://www.w3.org/2000/svg" version="1.1" xmlns:xlink="http://www.w3.org/1999/xlink" xmlns:svgjs="http://svgjs.dev/svgjs" width="100%" height="100%" viewBox="0 0 1000 600"><rect width="1000" height="600" x="0" y="0" fill="#ffe8f5"/><g><circle r="166.66666666666666" cx="362.31249491373694" cy="384.5347345987956" fill="#8000ff" transform="matrix(0.6389095942924077,0,0,0.6389095942924076,0,54.31707367091221)"/><path d="M308.13043626683134 326.13657261189195L308.13043626683134 459.5347445697784L289.2236087452411 459.5347445697784L289.2236087452411 326.13657261189195L242.36502078278144 326.13657261189195L242.36502078278144 309.53474412456967L354.7556066055678 309.53474412456967L354.7556066055678 326.13657261189195L308.13043626683134 326.13657261189195ZM377.45547051266215 309.53474412456967L420.28760446589433 309.53474412456967Q448.4436053275217 309.53474412456967 462.8279663894723 317.8502469697135Q477.2415046543882 326.13657261189195 477.2415046543882 346.7356779054763L477.2415046543882 346.7356779054763Q477.2415046543882 359.9529508488102 469.88884950710326 368.6769345354699Q462.53619435981807 377.40091822212963 448.64784574827956 379.9101576771555L448.64784574827956 379.9101576771555L448.64784574827956 380.96053698391046Q458.1012595090747 382.4485743351467 465.77486388897944 386.41667393844347Q473.4484682688841 390.4139507447056 477.854225916662 397.76660589199065Q482.25998356443995 405.1192610392757 482.25998356443995 416.87767383433874L482.25998356443995 416.87767383433874Q482.25998356443995 437.2725387071652 468.31328054697065 448.3890530369891Q454.337400326536 459.5347445697784 430.1786762711706 459.5347445697784L430.1786762711706 459.5347445697784L377.45547051266215 459.5347445697784L377.45547051266215 309.53474412456967ZM396.3622980342524 373.4036414158674L424.08064085139847 373.4036414158674Q443.3959492145045 373.4036414158674 450.54436394103175 367.218074387199Q457.69277866755885 361.00333015556527 457.69277866755885 348.8364365189863L457.69277866755885 348.8364365189863Q457.69277866755885 336.43612525868417 448.96879498089925 331.0675199130474Q440.2448112942395 325.7280917703761 421.13374335189144 325.7280917703761L421.13374335189144 325.7280917703761L396.3622980342524 325.7280917703761L396.3622980342524 373.4036414158674ZM425.13102015815355 389.15933101719264L396.3622980342524 389.15933101719264L396.3622980342524 443.5748145476953L426.58988030642433 443.5748145476953Q446.54708713476964 443.5748145476953 454.337400326536 435.78450135592897Q462.0985363153368 428.02336536712806 462.0985363153368 415.41881368606795L462.0985363153368 415.41881368606795Q462.0985363153368 403.6604008910048 454.0164510939163 396.395277352616Q445.93436587249585 389.15933101719264 425.13102015815355 389.15933101719264L425.13102015815355 389.15933101719264Z " fill="#ffe8f5" transform="matrix(0.6389095942924077,0,0,0.6389095942924076,0,54.31707367091221)"/><path d="M659.2708333383001 328.28474329821273L659.2708333383001 423.53474329821273L645.7708333383001 423.53474329821273L645.7708333383001 328.28474329821273L612.3125000049669 328.28474329821273L612.3125000049669 316.430576631546L692.5625000049669 316.430576631546L692.5625000049669 328.28474329821273L659.2708333383001 328.28474329821273ZM725.4166666716335 341.7847432982126L725.4166666716335 341.7847432982126Q740.1041666716335 341.7847432982126 747.1666666716335 348.243076631546Q754.2083333383001 354.680576631546 754.2083333383001 368.78474329821273L754.2083333383001 368.78474329821273L754.2083333383001 423.53474329821273L744.6041666716335 423.53474329821273L742.0625000049669 412.13890996487936L741.4583333383001 412.13890996487936Q736.2083333383001 418.743076631546 730.4375000049669 421.88890996487936Q724.6666666716335 425.03474329821273 714.4583333383001 425.03474329821273L714.4583333383001 425.03474329821273Q703.5208333383001 425.03474329821273 696.3125000049669 419.26390996487936Q689.1041666716335 413.493076631546 689.1041666716335 401.180576631546L689.1041666716335 401.180576631546Q689.1041666716335 389.180576631546 698.5625000049669 382.6597432982126Q708.0208333383001 376.13890996487936 727.6666666716335 375.53474329821273L727.6666666716335 375.53474329821273L741.3125000049669 375.07640996487936L741.3125000049669 370.28474329821273Q741.3125000049669 360.243076631546 736.9583333383001 356.32640996487936Q732.6041666716335 352.430576631546 724.6666666716335 352.430576631546L724.6666666716335 352.430576631546Q718.3541666716335 352.430576631546 712.6666666716335 354.305576631546Q706.9583333383001 356.180576631546 702.0208333383001 358.57640996487936L702.0208333383001 358.57640996487936L697.9583333383001 348.680576631546Q703.2083333383001 345.82640996487936 710.4166666716335 343.805576631546Q717.6041666716335 341.7847432982126 725.4166666716335 341.7847432982126ZM741.1666666716335 384.243076631546L729.3125000049669 384.680576631546Q714.3125000049669 385.28474329821273 708.5416666716335 389.493076631546Q702.7708333383001 393.680576631546 702.7708333383001 401.32640996487936L702.7708333383001 401.32640996487936Q702.7708333383001 408.07640996487936 706.8958333383001 411.243076631546Q711.0208333383001 414.38890996487936 717.4583333383001 414.38890996487936L717.4583333383001 414.38890996487936Q727.6666666716335 414.38890996487936 734.4166666716335 408.76390996487936Q741.1666666716335 403.13890996487936 741.1666666716335 391.430576631546L741.1666666716335 391.430576631546L741.1666666716335 384.243076631546ZM831.4583333383001 401.32640996487936L831.4583333383001 401.32640996487936Q831.4583333383001 413.03474329821273 822.7708333383001 419.03474329821273Q814.0625000049669 425.03474329821273 799.3541666716335 425.03474329821273L799.3541666716335 425.03474329821273Q790.9583333383001 425.03474329821273 784.8958333383001 423.680576631546Q778.8125000049669 422.32640996487936 774.1666666716335 419.930576631546L774.1666666716335 419.930576631546L774.1666666716335 407.930576631546Q778.9583333383001 410.32640996487936 785.7916666716335 412.368076631546Q792.6041666716335 414.38890996487936 799.6666666716335 414.38890996487936L799.6666666716335 414.38890996487936Q809.7083333383001 414.38890996487936 814.2083333383001 411.15974329821273Q818.7083333383002 407.930576631546 818.7083333383002 402.53474329821273L818.7083333383002 402.53474329821273Q818.7083333383002 399.53474329821273 817.0625000049669 397.13890996487936Q815.4166666716335 394.743076631546 811.1458333383001 392.32640996487936Q806.8541666716335 389.930576631546 798.9166666716335 386.930576631546L798.9166666716335 386.930576631546Q791.1041666716335 383.930576631546 785.5625000049669 380.930576631546Q780.0208333383001 377.930576631546 777.0208333383001 373.743076631546Q774.0208333383001 369.53474329821273 774.0208333383001 362.930576631546L774.0208333383001 362.930576631546Q774.0208333383001 352.743076631546 782.3333333383001 347.180576631546Q790.6666666716335 341.63890996487936 804.1666666716335 341.63890996487936L804.1666666716335 341.63890996487936Q811.5208333383001 341.63890996487936 817.8958333383002 343.055576631546Q824.2708333383001 344.493076631546 829.8125000049669 347.03474329821273L829.8125000049669 347.03474329821273L825.3125000049669 357.53474329821273Q820.2083333383002 355.430576631546 814.6666666716335 353.930576631546Q809.1041666716335 352.430576631546 803.2708333383001 352.430576631546L803.2708333383001 352.430576631546Q795.1666666716335 352.430576631546 790.8958333383001 355.055576631546Q786.6041666716335 357.680576631546 786.6041666716335 362.180576631546L786.6041666716335 362.180576631546Q786.6041666716335 365.493076631546 788.5625000049669 367.805576631546Q790.5208333383001 370.13890996487936 795.0833333383001 372.305576631546Q799.6666666716335 374.493076631546 807.3125000049669 377.493076631546L807.3125000049669 377.493076631546Q814.9583333383001 380.32640996487936 820.3541666716335 383.32640996487936Q825.7708333383002 386.32640996487936 828.6041666716335 390.618076631546Q831.4583333383001 394.88890996487936 831.4583333383001 401.32640996487936ZM864.0208333383002 309.5347432982127L864.0208333383002 369.07640996487936Q864.0208333383002 371.493076631546 863.7916666716335 375.38890996487936Q863.5625000049669 379.28474329821273 863.4166666716335 382.13890996487936L863.4166666716335 382.13890996487936L864.0208333383002 382.13890996487936Q864.9166666716335 380.930576631546 866.7083333383001 378.680576631546Q868.5208333383002 376.430576631546 870.3958333383001 374.118076631546Q872.2708333383001 371.78474329821273 873.6041666716335 370.28474329821273L873.6041666716335 370.28474329821273L899.2708333383002 343.13890996487936L914.7083333383002 343.13890996487936L882.1666666716335 377.493076631546L916.9583333383001 423.53474329821273L901.0625000049669 423.53474329821273L873.1666666716335 386.03474329821273L864.0208333383002 393.993076631546L864.0208333383002 423.53474329821273L850.9583333383001 423.53474329821273L850.9583333383001 309.5347432982127L864.0208333383002 309.5347432982127ZM932.8541666716336 316.430576631546L963.4583333383002 316.430576631546Q983.5625000049669 316.430576631546 993.8333333383001 322.368076631546Q1004.1041666716336 328.28474329821273 1004.1041666716336 342.993076631546L1004.1041666716336 342.993076631546Q1004.1041666716336 352.430576631546 998.8541666716335 358.65974329821273Q993.6041666716336 364.88890996487936 983.7083333383002 366.680576631546L983.7083333383002 366.680576631546L983.7083333383002 367.430576631546Q990.4583333383001 368.493076631546 995.9375000049669 371.32640996487936Q1001.4166666716336 374.180576631546 1004.5625000049669 379.430576631546Q1007.7083333383001 384.680576631546 1007.7083333383001 393.07640996487936L1007.7083333383001 393.07640996487936Q1007.7083333383001 407.63890996487936 997.7291666716336 415.57640996487936Q987.7708333383001 423.53474329821273 970.5208333383002 423.53474329821273L970.5208333383002 423.53474329821273L932.8541666716336 423.53474329821273L932.8541666716336 316.430576631546ZM946.3541666716335 362.03474329821273L966.1666666716335 362.03474329821273Q979.9583333383001 362.03474329821273 985.0625000049669 357.618076631546Q990.1666666716336 353.180576631546 990.1666666716336 344.493076631546L990.1666666716336 344.493076631546Q990.1666666716336 335.63890996487936 983.9375000049669 331.805576631546Q977.7083333383002 327.993076631546 964.0625000049669 327.993076631546L964.0625000049669 327.993076631546L946.3541666716335 327.993076631546L946.3541666716335 362.03474329821273ZM966.9166666716336 373.28474329821273L946.3541666716335 373.28474329821273L946.3541666716335 412.13890996487936L967.9583333383002 412.13890996487936Q982.2083333383002 412.13890996487936 987.7708333383001 406.57640996487936Q993.3125000049669 401.03474329821273 993.3125000049669 392.03474329821273L993.3125000049669 392.03474329821273Q993.3125000049669 383.63890996487936 987.5416666716336 378.45140996487936Q981.7708333383001 373.28474329821273 966.9166666716336 373.28474329821273L966.9166666716336 373.28474329821273ZM1082.5625000049668 343.13890996487936L1095.7708333383002 343.13890996487936L1095.7708333383002 423.53474329821273L1084.9583333383002 423.53474329821273L1083.0208333383002 412.88890996487936L1082.4166666716337 412.88890996487936Q1078.5208333383002 419.180576631546 1071.6041666716337 422.118076631546Q1064.7083333383002 425.03474329821273 1056.9166666716337 425.03474329821273L1056.9166666716337 425.03474329821273Q1042.3541666716337 425.03474329821273 1035.0208333383002 418.055576631546Q1027.6666666716337 411.07640996487936 1027.6666666716337 395.78474329821273L1027.6666666716337 395.78474329821273L1027.6666666716337 343.13890996487936L1041.0208333383002 343.13890996487936L1041.0208333383002 394.88890996487936Q1041.0208333383002 414.07640996487936 1058.8541666716337 414.07640996487936L1058.8541666716337 414.07640996487936Q1072.2083333383002 414.07640996487936 1077.3958333383002 406.57640996487936Q1082.5625000049668 399.07640996487936 1082.5625000049668 384.993076631546L1082.5625000049668 384.993076631546L1082.5625000049668 343.13890996487936ZM1149.7708333383002 425.03474329821273L1149.7708333383002 425.03474329821273Q1134.7708333383002 425.03474329821273 1125.7708333383002 414.618076631546Q1116.7708333383002 404.180576631546 1116.7708333383002 383.493076631546L1116.7708333383002 383.493076631546Q1116.7708333383002 362.78474329821273 1125.8333333383002 352.20140996487936Q1134.9166666716337 341.63890996487936 1149.9166666716337 341.63890996487936L1149.9166666716337 341.63890996487936Q1159.2083333383002 341.63890996487936 1165.1458333383002 345.07640996487936Q1171.0625000049672 348.53474329821273 1174.8125000049672 353.493076631546L1174.8125000049672 353.493076631546L1175.7083333383002 353.493076631546Q1175.5625000049668 351.5347432982126 1175.1875000049668 347.70140996487936Q1174.8125000049672 343.88890996487936 1174.8125000049672 341.63890996487936L1174.8125000049672 341.63890996487936L1174.8125000049672 309.5347432982127L1188.0208333383002 309.5347432982127L1188.0208333383002 423.53474329821273L1177.3541666716337 423.53474329821273L1175.4166666716337 412.743076631546L1174.8125000049672 412.743076631546Q1171.2083333383002 417.82640996487936 1165.2083333383002 421.430576631546Q1159.2083333383002 425.03474329821273 1149.7708333383002 425.03474329821273ZM1151.8541666716337 414.07640996487936L1151.8541666716337 414.07640996487936Q1164.6041666716337 414.07640996487936 1169.7916666716337 407.118076631546Q1174.9583333383002 400.13890996487936 1174.9583333383002 386.03474329821273L1174.9583333383002 386.03474329821273L1174.9583333383002 383.63890996487936Q1174.9583333383002 368.63890996487936 1170.0208333383002 360.618076631546Q1165.0625000049672 352.57640996487936 1151.7083333383002 352.57640996487936L1151.7083333383002 352.57640996487936Q1141.0625000049668 352.57640996487936 1135.7291666716337 361.055576631546Q1130.4166666716337 369.53474329821273 1130.4166666716337 383.78474329821273L1130.4166666716337 383.78474329821273Q1130.4166666716337 398.180576631546 1135.7291666716337 406.13890996487936Q1141.0625000049668 414.07640996487936 1151.8541666716337 414.07640996487936ZM1242.0208333383002 425.03474329821273L1242.0208333383002 425.03474329821273Q1227.0208333383002 425.03474329821273 1218.0208333383002 414.618076631546Q1209.0208333383002 404.180576631546 1209.0208333383002 383.493076631546L1209.0208333383002 383.493076631546Q1209.0208333383002 362.78474329821273 1218.0833333383002 352.20140996487936Q1227.1666666716337 341.63890996487936 1242.1666666716337 341.63890996487936L1242.1666666716337 341.63890996487936Q1251.4583333383002 341.63890996487936 1257.3958333383002 345.07640996487936Q1263.3125000049668 348.53474329821273 1267.0625000049668 353.493076631546L1267.0625000049668 353.493076631546L1267.9583333383002 353.493076631546Q1267.8125000049668 351.5347432982126 1267.4375000049668 347.70140996487936Q1267.0625000049668 343.88890996487936 1267.0625000049668 341.63890996487936L1267.0625000049668 341.63890996487936L1267.0625000049668 309.5347432982127L1280.2708333383002 309.5347432982127L1280.2708333383002 423.53474329821273L1269.6041666716337 423.53474329821273L1267.6666666716337 412.743076631546L1267.0625000049668 412.743076631546Q1263.4583333383002 417.82640996487936 1257.4583333383002 421.430576631546Q1251.4583333383002 425.03474329821273 1242.0208333383002 425.03474329821273ZM1244.1041666716337 414.07640996487936L1244.1041666716337 414.07640996487936Q1256.8541666716337 414.07640996487936 1262.0416666716333 407.118076631546Q1267.2083333383002 400.13890996487936 1267.2083333383002 386.03474329821273L1267.2083333383002 386.03474329821273L1267.2083333383002 383.63890996487936Q1267.2083333383002 368.63890996487936 1262.2708333383002 360.618076631546Q1257.3125000049668 352.57640996487936 1243.9583333383002 352.57640996487936L1243.9583333383002 352.57640996487936Q1233.3125000049668 352.57640996487936 1227.9791666716337 361.055576631546Q1222.6666666716337 369.53474329821273 1222.6666666716337 383.78474329821273L1222.6666666716337 383.78474329821273Q1222.6666666716337 398.180576631546 1227.9791666716337 406.13890996487936Q1233.3125000049668 414.07640996487936 1244.1041666716337 414.07640996487936ZM1325.5625000049668 423.82640996487936L1293.1666666716333 343.13890996487936L1307.2708333383002 343.13890996487936L1324.6666666716337 388.88890996487936Q1326.9166666716337 394.88890996487936 1328.7083333383002 400.368076631546Q1330.5208333383002 405.82640996487936 1331.4166666716337 410.78474329821273L1331.4166666716337 410.78474329821273L1332.0208333383002 410.78474329821273Q1332.9166666716337 407.03474329821273 1334.8541666716337 400.95140996487936Q1336.8125000049668 394.88890996487936 1338.9166666716337 388.743076631546L1338.9166666716337 388.743076631546L1355.2708333383002 343.13890996487936L1369.5208333383002 343.13890996487936L1334.8541666716337 434.63890996487936Q1330.6666666716333 446.0347432982126 1323.9791666716337 452.7847432982126Q1317.3125000049668 459.5347432982126 1305.6041666716337 459.5347432982126L1305.6041666716337 459.5347432982126Q1302.0208333383002 459.5347432982126 1299.3125000049668 459.1597432982126Q1296.6041666716337 458.7847432982126 1294.6666666716337 458.32640996487936L1294.6666666716337 458.32640996487936L1294.6666666716337 447.82640996487936Q1296.3125000049668 448.13890996487936 1298.6458333383002 448.430576631546Q1300.9583333383002 448.743076631546 1303.5208333383002 448.743076631546L1303.5208333383002 448.743076631546Q1310.4166666716337 448.743076631546 1314.6875000049668 444.82640996487936Q1318.9583333383002 440.930576631546 1321.3541666716337 434.493076631546L1321.3541666716337 434.493076631546L1325.5625000049668 423.82640996487936Z " fill="#8000ff" transform="matrix(0.6389095942924077,0,0,0.6389095942924076,0,54.31707367091221)"/></g></svg>